<svg version="1.1" id="Layer_1" xmlns="http://www.w3.org/2000/svg" xmlns:xlink="http://www.w3.org/1999/xlink" x="0px" y="0px"
	 width="100%" viewBox="0 0 300 300" enable-background="new 0 0 300 300" xml:space="preserve">
<path fill="#000000" opacity="1.000000" stroke="none" 
	d="
M182.000000,301.000000 
	C121.333344,301.000000 61.166687,301.000000 1.000024,301.000000 
	C1.000016,201.000031 1.000016,101.000061 1.000008,1.000064 
	C100.999947,1.000043 200.999893,1.000043 300.999878,1.000021 
	C300.999939,100.999939 300.999939,200.999878 300.999969,300.999908 
	C261.500000,301.000000 222.000000,301.000000 182.000000,301.000000 
M172.500000,286.001129 
	C210.261444,286.001129 248.022888,286.001129 285.714050,286.001129 
	C285.714050,195.690430 285.714050,105.954102 285.714050,16.285931 
	C195.690384,16.285931 105.954063,16.285931 16.285948,16.285931 
	C16.285948,106.309647 16.285948,196.045959 16.285948,286.001129 
	C68.215179,286.001129 119.857590,286.001129 172.500000,286.001129 
z"/>
<path fill="#FEFEFE" opacity="1.000000" stroke="none" 
	d="
M172.000000,286.001129 
	C119.857590,286.001129 68.215179,286.001129 16.285948,286.001129 
	C16.285948,196.045959 16.285948,106.309647 16.285948,16.285931 
	C105.954063,16.285931 195.690384,16.285931 285.714050,16.285931 
	C285.714050,105.954102 285.714050,195.690430 285.714050,286.001129 
	C248.022888,286.001129 210.261444,286.001129 172.000000,286.001129 
M111.460342,86.901070 
	C93.651306,84.873489 76.132431,86.714867 58.927391,90.188431 
	C58.927391,128.805145 58.927391,166.758575 58.927391,205.457413 
	C68.168175,206.064835 77.248734,206.948029 86.346542,207.194519 
	C101.008621,207.591751 115.664047,207.349258 129.685883,202.123184 
	C143.539520,196.959824 150.194977,187.496719 150.283615,173.000183 
	C150.372208,158.510345 145.061508,151.051910 130.612686,145.330002 
	C130.348618,145.225403 130.198212,144.833755 129.999619,144.572220 
	C142.548645,138.711945 147.629425,130.368134 147.087967,116.509216 
	C146.603378,104.106445 140.070663,95.089951 127.784798,90.755531 
	C122.814316,89.001953 117.508041,88.200142 111.460342,86.901070 
M190.489502,87.708893 
	C186.037781,87.708893 181.586060,87.708893 176.986694,87.708893 
	C176.986694,127.343620 176.986694,166.526688 176.986694,205.704742 
	C203.820953,205.704742 230.376297,205.704742 256.803528,205.704742 
	C256.803528,198.489685 256.803528,191.579391 256.803528,184.144348 
	C238.624954,184.144348 220.744278,184.144348 202.405472,184.144348 
	C202.405472,151.735168 202.405472,119.857666 202.405472,87.708893 
	C198.450592,87.708893 194.965515,87.708893 190.489502,87.708893 
z"/>
<path fill="#010101" opacity="1.000000" stroke="none" 
	d="
M111.907455,86.933144 
	C117.508041,88.200142 122.814316,89.001953 127.784798,90.755531 
	C140.070663,95.089951 146.603378,104.106445 147.087967,116.509216 
	C147.629425,130.368134 142.548645,138.711945 129.997192,144.574127 
	C130.198212,144.833755 130.348618,145.225403 130.612686,145.330002 
	C145.061508,151.051910 150.372208,158.510345 150.283615,173.000183 
	C150.194977,187.496719 143.539520,196.959824 129.685883,202.123184 
	C115.664047,207.349258 101.008621,207.591751 86.346542,207.194519 
	C77.248734,206.948029 68.168175,206.064835 58.927391,205.457413 
	C58.927391,166.758575 58.927391,128.805145 58.927391,90.188431 
	C76.132431,86.714867 93.651306,84.873489 111.907455,86.933144 
M103.404182,188.314056 
	C106.850418,187.853745 110.351448,187.639084 113.732155,186.884979 
	C122.331757,184.966660 126.452950,179.790573 126.330940,171.498474 
	C126.200218,162.614182 121.860596,157.157288 112.671379,156.143524 
	C103.339798,155.114059 93.891029,155.146820 84.309097,154.705902 
	C84.309097,166.173355 84.309097,176.854462 84.309097,188.334045 
	C90.551384,188.334045 96.490608,188.334045 103.404182,188.314056 
M87.491997,106.018890 
	C86.328453,106.786270 84.173935,107.527611 84.152985,108.325020 
	C83.914345,117.403587 84.001373,126.490715 84.001373,136.332275 
	C93.125099,135.844910 101.744682,135.790176 110.258469,134.813354 
	C118.447891,133.873749 122.668297,128.559677 122.725227,120.647995 
	C122.783913,112.492439 118.879303,107.155952 110.661484,106.251930 
	C103.317955,105.444084 95.822372,106.018394 87.491997,106.018890 
z"/>
<path fill="#040404" opacity="1.000000" stroke="none" 
	d="
M190.984970,87.708893 
	C194.965515,87.708893 198.450592,87.708893 202.405472,87.708893 
	C202.405472,119.857666 202.405472,151.735168 202.405472,184.144348 
	C220.744278,184.144348 238.624954,184.144348 256.803528,184.144348 
	C256.803528,191.579391 256.803528,198.489685 256.803528,205.704742 
	C230.376297,205.704742 203.820953,205.704742 176.986694,205.704742 
	C176.986694,166.526688 176.986694,127.343620 176.986694,87.708893 
	C181.586060,87.708893 186.037781,87.708893 190.984970,87.708893 
z"/>
<path fill="#FCFCFC" opacity="1.000000" stroke="none" 
	d="
M102.917007,188.324051 
	C96.490608,188.334045 90.551384,188.334045 84.309097,188.334045 
	C84.309097,176.854462 84.309097,166.173355 84.309097,154.705902 
	C93.891029,155.146820 103.339798,155.114059 112.671379,156.143524 
	C121.860596,157.157288 126.200218,162.614182 126.330940,171.498474 
	C126.452950,179.790573 122.331757,184.966660 113.732155,186.884979 
	C110.351448,187.639084 106.850418,187.853745 102.917007,188.324051 
z"/>
<path fill="#FBFBFB" opacity="1.000000" stroke="none" 
	d="
M87.942940,106.000862 
	C95.822372,106.018394 103.317955,105.444084 110.661484,106.251930 
	C118.879303,107.155952 122.783913,112.492439 122.725227,120.647995 
	C122.668297,128.559677 118.447891,133.873749 110.258469,134.813354 
	C101.744682,135.790176 93.125099,135.844910 84.001373,136.332275 
	C84.001373,126.490715 83.914345,117.403587 84.152985,108.325020 
	C84.173935,107.527611 86.328453,106.786270 87.942940,106.000862 
z"/>
</svg>